<?xml version="1.0" encoding="utf-8"?>
<!-- Generator: Adobe Illustrator 28.0.0, SVG Export Plug-In . SVG Version: 6.00 Build 0)  -->
<svg version="1.1" id="_x37C_" xmlns="http://www.w3.org/2000/svg" xmlns:xlink="http://www.w3.org/1999/xlink" x="0px" y="0px"
	 viewBox="0 0 87.7 84.4" style="enable-background:new 0 0 87.7 84.4;" xml:space="preserve">
<style type="text/css">
	.st0{fill-rule:evenodd;clip-rule:evenodd;fill:#F39B37;}
	.st1{fill-rule:evenodd;clip-rule:evenodd;fill:#ED6C00;}
	.st2{fill-rule:evenodd;clip-rule:evenodd;fill:#54C3F1;}
</style>
<path class="st0" d="M61.4,81.3H19.6l-2.2,3.1l-2.8-3.1v-7.6H57l16.7-29.2c-23.4,0-46.7,0-70.1,0L0,41.4L23.7,0h46.7l3,3.1L28,7.6
	L11.3,36.8c23.3,0,46.7,0,70,0l3.2,3.1L61.4,81.3z"/>
<path class="st1" d="M64.2,84.4H17.3v-7.6h42.5l16.7-29.2c-23,0-46.1,0-69.1,0L3,44L26.5,3.1h47v7.6H31L14.2,39.9
	c23.4,0,46.8,0,70.2,0l3.3,3.5L64.2,84.4z"/>
<path class="st2" d="M68.8,16.7c1.2,0,2.2,1,2.2,2.2s-1,2.2-2.2,2.2H38.2l-3.4,5.9h27.8c1.2,0,2.2,1,2.2,2.2s-1,2.2-2.2,2.2H31l0,0
	c-0.4,0-0.8-0.1-1.1-0.3c-1.1-0.6-1.4-2-0.8-3L35,18c0.4-0.7,1.1-1.2,2-1.2H68.8z"/>
<path class="st2" d="M20.3,68.3c-1.2,0-2.2-1-2.2-2.2s1-2.2,2.2-2.2h30.5l3.4-5.9H26.3c-1.2,0-2.2-1-2.2-2.2s1-2.2,2.2-2.2H58l0,0
	c0.4,0,0.8,0.1,1.1,0.3c1.1,0.6,1.4,2,0.8,3L54.1,67c-0.4,0.7-1.1,1.2-2,1.2H20.3z"/>
</svg>
